<svg width="18" height="18" viewBox="0 0 18 18" fill="none" xmlns="http://www.w3.org/2000/svg">
<path fill-rule="evenodd" clip-rule="evenodd" d="M12.1807 11.4716H12.9707L17.2207 15.7316C17.6307 16.1416 17.6307 16.8016 17.2207 17.2116L17.2107 17.2216C16.8007 17.6316 16.1407 17.6316 15.7307 17.2216L11.4707 12.9716V12.1816L11.2007 11.9016C9.80072 13.1016 7.89072 13.7216 5.86072 13.3816C3.08072 12.9116 0.860722 10.5916 0.520722 7.79157C0.0107219 3.56157 3.56072 0.00157287 7.79072 0.521573C10.5907 0.861573 12.9107 3.08157 13.3807 5.86157C13.7207 7.89157 13.1007 9.80157 11.9007 11.2016L12.1807 11.4716ZM2.47072 6.97157C2.47072 9.46157 4.48072 11.4716 6.97072 11.4716C9.46072 11.4716 11.4707 9.46157 11.4707 6.97157C11.4707 4.48157 9.46072 2.47157 6.97072 2.47157C4.48072 2.47157 2.47072 4.48157 2.47072 6.97157Z" fill="white" fill-opacity="1"/>
</svg>
